<svg xmlns="http://www.w3.org/2000/svg" viewBox="4.989 67.91 182.778 56.936"><g fill-rule="evenodd" clip-rule="evenodd"><path fill="#fff22d" d="M8.504 71.425h175.748v49.906H8.504z"/><path fill="#cc2229" d="M163.377 81.269c3.918 0 5.654 3.65 5.639 5.561 0 1.753-1.246 5.719-5.67 5.703L40.681 92.5l.047 18.988H25.863v-30.22h137.514zm-17.313 3.665c.979 0 1.957.822 1.957 1.722 0 .917-.994 1.927-1.975 1.927H40.728l.016-3.664zM80.237 95.549c3.097 0 5.26 2.118 5.26 5.75 0 2.022-1.926 4.091-3.333 4.55l3.981 5.639H75.608l-2.622-4.849h-2.449l-.016 4.849h-8.957l-.031-15.939zm-5.277 3.649c.948 0 1.77.854 1.77 1.753 0 1.106-.822 1.771-1.77 1.771h-4.439v-3.523h4.439zm35.212-3.649-.031 3.666-10.299-.017v2.512l9.967.016v3.665h-9.967v2.495h10.963l-.016 3.603H90.505v-15.94zm14.803 0v12.336h8.893l-.016 3.603h-18.008V95.549zm20.662 0v12.336h8.863v3.603h-17.994V95.549zm-90.044 0v15.939h-8.894V95.549zm101.733 0h8.895v15.939h-8.895z"/></g></svg>